# xmcd CD database file
#
# Track frame offsets:
#	150
#	25730
#	71273
#	92198
#	118678
#	151697
#	183500
#	205105
#
# Disc length: 3306 seconds
#
# Revision: 2
# Processed by: cddbd v1.5.2PL0 Copyright (c) Steve Scherf et al.
# Submitted via: CDex 1.51
#
DISCID=5e0ce808
DTITLE=Franz Schubert - Symphonies N°5 and N°6
DYEAR=1900
DGENRE=Classique
TTITLE0=Symphony N°5  in B flat major, D485 - I. Allegro  [Sir Thomas Beecham, 1938]
TTITLE1=Symphony N°5  in B flat major, D485 - II. Andante con moto  [London Philharmonic Orchestra, 1938]
TTITLE2=Symphony N°5  in B flat major, D485 - III. Minuetto: Allegro molto
TTITLE3=Symphony N°5  in B flat major, D485 - IV. Allegro vivace
TTITLE4=Symphony N°6 in C major, D589 - I. Adagio. Allegro  [Sir Thomas Beecham, 1944]
TTITLE5=Symphony N°6 in C major, D589 - II. Andante  [London Philharmonic Orchestra, 1944]
TTITLE6=Symphony N°6 in C major, D589 - III. Scherzo. Presto
TTITLE7=Symphony N°6 in C major, D589 - IV. Allegro moderato
EXTD=
EXTT0=
EXTT1=
EXTT2=
EXTT3=
EXTT4=
EXTT5=
EXTT6=
EXTT7=
PLAYORDER=
